{
	"asset":{
		"generator":"Khronos glTF Blender I/O v4.1.62",
		"version":"2.0"
	},
	"scene":0,
	"scenes":[
		{
			"name":"Scene",
			"nodes":[
				2,
				5,
				8
			]
		}
	],
	"nodes":[
		{
			"mesh":0,
			"name":"Snare Bottom Rim",
			"translation":[
				0,
				-0.5000004768371582,
				0
			]
		},
		{
			"mesh":1,
			"name":"Snare Top Rim",
			"translation":[
				0,
				0.5499997138977051,
				0
			]
		},
		{
			"children":[
				0,
				1
			],
			"mesh":2,
			"name":"Snare Body",
			"rotation":[
				0,
				-0.9999872446060181,
				0,
				0.005052501335740089
			],
			"scale":[
				1,
				0.75,
				1
			],
			"translation":[
				0.4798199534416199,
				5.807773590087891,
				-2.7967047691345215
			]
		},
		{
			"mesh":3,
			"name":"Snare Top Rim.001",
			"translation":[
				0,
				0.5500000715255737,
				0
			]
		},
		{
			"mesh":4,
			"name":"Snare Top Rim.002",
			"translation":[
				0,
				-0.5334962010383606,
				0
			]
		},
		{
			"children":[
				3,
				4
			],
			"mesh":5,
			"name":"Bass Body.001",
			"rotation":[
				0,
				0,
				-0.7071068286895752,
				0.7071068286895752
			],
			"scale":[
				1.399999976158142,
				2,
				1.399999976158142
			],
			"translation":[
				-2.0133895874023438,
				3.935210943222046,
				-4.318299770355225
			]
		},
		{
			"mesh":6,
			"name":"Cone.001",
			"rotation":[
				1,
				0,
				0,
				7.864364448550987e-08
			],
			"scale":[
				1.6666667461395264,
				1,
				1.6666667461395264
			],
			"translation":[
				0.09571647644042969,
				1.8663663864135742,
				0.010348677635192871
			]
		},
		{
			"mesh":7,
			"name":"Cone.002",
			"rotation":[
				0,
				-1,
				0,
				1.5810417419714895e-09
			],
			"scale":[
				1.6666667461395264,
				1,
				1.6666667461395264
			],
			"translation":[
				0.0957489013671875,
				2.157932758331299,
				0.01026618480682373
			]
		},
		{
			"children":[
				6,
				7
			],
			"mesh":8,
			"name":"Cylinder",
			"scale":[
				0.75,
				1,
				0.75
			],
			"translation":[
				0.29467737674713135,
				6.013119697570801,
				-0.5471345782279968
			]
		}
	],
	"meshes":[
		{
			"name":"Cylinder.008",
			"primitives":[
				{
					"attributes":{
						"POSITION":0,
						"NORMAL":1
					},
					"indices":2
				}
			]
		},
		{
			"name":"Cylinder.009",
			"primitives":[
				{
					"attributes":{
						"POSITION":3,
						"NORMAL":4
					},
					"indices":5
				}
			]
		},
		{
			"name":"Cylinder.007",
			"primitives":[
				{
					"attributes":{
						"POSITION":6,
						"NORMAL":7
					},
					"indices":2
				}
			]
		},
		{
			"name":"Cylinder.003",
			"primitives":[
				{
					"attributes":{
						"POSITION":8,
						"NORMAL":9
					},
					"indices":5
				}
			]
		},
		{
			"name":"Cylinder.004",
			"primitives":[
				{
					"attributes":{
						"POSITION":10,
						"NORMAL":11
					},
					"indices":5
				}
			]
		},
		{
			"name":"Cylinder.001",
			"primitives":[
				{
					"attributes":{
						"POSITION":12,
						"NORMAL":13
					},
					"indices":2
				}
			]
		},
		{
			"name":"Cone.001",
			"primitives":[
				{
					"attributes":{
						"POSITION":14,
						"NORMAL":15,
						"TEXCOORD_0":16
					},
					"indices":17
				}
			]
		},
		{
			"name":"Cone.003",
			"primitives":[
				{
					"attributes":{
						"POSITION":18,
						"NORMAL":19,
						"TEXCOORD_0":20
					},
					"indices":17
				}
			]
		},
		{
			"name":"Cylinder.005",
			"primitives":[
				{
					"attributes":{
						"POSITION":21,
						"NORMAL":22,
						"TEXCOORD_0":23
					},
					"indices":24
				}
			]
		}
	],
	"accessors":[
		{
			"bufferView":0,
			"componentType":5126,
			"count":96,
			"max":[
				1.100000023841858,
				0.10000000149011612,
				1.100000023841858
			],
			"min":[
				-1.100000023841858,
				-0.10000000149011612,
				-1.100000023841858
			],
			"type":"VEC3"
		},
		{
			"bufferView":1,
			"componentType":5126,
			"count":96,
			"type":"VEC3"
		},
		{
			"bufferView":2,
			"componentType":5123,
			"count":180,
			"type":"SCALAR"
		},
		{
			"bufferView":3,
			"componentType":5126,
			"count":192,
			"max":[
				1.100000023841858,
				0.10000000149011612,
				1.100000023841858
			],
			"min":[
				-1.100000023841858,
				-0.10000000149011612,
				-1.100000023841858
			],
			"type":"VEC3"
		},
		{
			"bufferView":4,
			"componentType":5126,
			"count":192,
			"type":"VEC3"
		},
		{
			"bufferView":5,
			"componentType":5123,
			"count":384,
			"type":"SCALAR"
		},
		{
			"bufferView":6,
			"componentType":5126,
			"count":96,
			"max":[
				1,
				0.5,
				1
			],
			"min":[
				-1,
				-0.5,
				-1
			],
			"type":"VEC3"
		},
		{
			"bufferView":7,
			"componentType":5126,
			"count":96,
			"type":"VEC3"
		},
		{
			"bufferView":8,
			"componentType":5126,
			"count":192,
			"max":[
				1.100000023841858,
				0.10000000149011612,
				1.100000023841858
			],
			"min":[
				-1.100000023841858,
				-0.10000000149011612,
				-1.100000023841858
			],
			"type":"VEC3"
		},
		{
			"bufferView":9,
			"componentType":5126,
			"count":192,
			"type":"VEC3"
		},
		{
			"bufferView":10,
			"componentType":5126,
			"count":192,
			"max":[
				1.100000023841858,
				0.10000000149011612,
				1.100000023841858
			],
			"min":[
				-1.100000023841858,
				-0.10000000149011612,
				-1.100000023841858
			],
			"type":"VEC3"
		},
		{
			"bufferView":11,
			"componentType":5126,
			"count":192,
			"type":"VEC3"
		},
		{
			"bufferView":12,
			"componentType":5126,
			"count":96,
			"max":[
				1,
				0.5,
				1
			],
			"min":[
				-1,
				-0.5,
				-1
			],
			"type":"VEC3"
		},
		{
			"bufferView":13,
			"componentType":5126,
			"count":96,
			"type":"VEC3"
		},
		{
			"bufferView":14,
			"componentType":5126,
			"count":128,
			"max":[
				1,
				0.125,
				1
			],
			"min":[
				-1,
				-0.125,
				-1
			],
			"type":"VEC3"
		},
		{
			"bufferView":15,
			"componentType":5126,
			"count":128,
			"type":"VEC3"
		},
		{
			"bufferView":16,
			"componentType":5126,
			"count":128,
			"type":"VEC2"
		},
		{
			"bufferView":17,
			"componentType":5123,
			"count":186,
			"type":"SCALAR"
		},
		{
			"bufferView":18,
			"componentType":5126,
			"count":128,
			"max":[
				1,
				0.125,
				1
			],
			"min":[
				-1,
				-0.125,
				-1
			],
			"type":"VEC3"
		},
		{
			"bufferView":19,
			"componentType":5126,
			"count":128,
			"type":"VEC3"
		},
		{
			"bufferView":20,
			"componentType":5126,
			"count":128,
			"type":"VEC2"
		},
		{
			"bufferView":21,
			"componentType":5126,
			"count":48,
			"max":[
				0.10000000149011612,
				2.5,
				0.10000000149011612
			],
			"min":[
				-0.10000000149011612,
				-2.5,
				-0.10000000149011612
			],
			"type":"VEC3"
		},
		{
			"bufferView":22,
			"componentType":5126,
			"count":48,
			"type":"VEC3"
		},
		{
			"bufferView":23,
			"componentType":5126,
			"count":48,
			"type":"VEC2"
		},
		{
			"bufferView":24,
			"componentType":5123,
			"count":84,
			"type":"SCALAR"
		}
	],
	"bufferViews":[
		{
			"buffer":0,
			"byteLength":1152,
			"byteOffset":0,
			"target":34962
		},
		{
			"buffer":0,
			"byteLength":1152,
			"byteOffset":1152,
			"target":34962
		},
		{
			"buffer":0,
			"byteLength":360,
			"byteOffset":2304,
			"target":34963
		},
		{
			"buffer":0,
			"byteLength":2304,
			"byteOffset":2664,
			"target":34962
		},
		{
			"buffer":0,
			"byteLength":2304,
			"byteOffset":4968,
			"target":34962
		},
		{
			"buffer":0,
			"byteLength":768,
			"byteOffset":7272,
			"target":34963
		},
		{
			"buffer":0,
			"byteLength":1152,
			"byteOffset":8040,
			"target":34962
		},
		{
			"buffer":0,
			"byteLength":1152,
			"byteOffset":9192,
			"target":34962
		},
		{
			"buffer":0,
			"byteLength":2304,
			"byteOffset":10344,
			"target":34962
		},
		{
			"buffer":0,
			"byteLength":2304,
			"byteOffset":12648,
			"target":34962
		},
		{
			"buffer":0,
			"byteLength":2304,
			"byteOffset":14952,
			"target":34962
		},
		{
			"buffer":0,
			"byteLength":2304,
			"byteOffset":17256,
			"target":34962
		},
		{
			"buffer":0,
			"byteLength":1152,
			"byteOffset":19560,
			"target":34962
		},
		{
			"buffer":0,
			"byteLength":1152,
			"byteOffset":20712,
			"target":34962
		},
		{
			"buffer":0,
			"byteLength":1536,
			"byteOffset":21864,
			"target":34962
		},
		{
			"buffer":0,
			"byteLength":1536,
			"byteOffset":23400,
			"target":34962
		},
		{
			"buffer":0,
			"byteLength":1024,
			"byteOffset":24936,
			"target":34962
		},
		{
			"buffer":0,
			"byteLength":372,
			"byteOffset":25960,
			"target":34963
		},
		{
			"buffer":0,
			"byteLength":1536,
			"byteOffset":26332,
			"target":34962
		},
		{
			"buffer":0,
			"byteLength":1536,
			"byteOffset":27868,
			"target":34962
		},
		{
			"buffer":0,
			"byteLength":1024,
			"byteOffset":29404,
			"target":34962
		},
		{
			"buffer":0,
			"byteLength":576,
			"byteOffset":30428,
			"target":34962
		},
		{
			"buffer":0,
			"byteLength":576,
			"byteOffset":31004,
			"target":34962
		},
		{
			"buffer":0,
			"byteLength":384,
			"byteOffset":31580,
			"target":34962
		},
		{
			"buffer":0,
			"byteLength":168,
			"byteOffset":31964,
			"target":34963
		}
	],
	"buffers":[
		{
			"byteLength":32132,
			"uri":"drum.bin"
		}
	]
}
